<svg xmlns="http://www.w3.org/2000/svg" viewBox="0 0 500 500"><g id="freepik--background-complete--inject-4"><rect y="382.4" width="500" height="0.25" style="fill:#ebebeb"></rect><rect x="416.78" y="398.49" width="33.12" height="0.25" style="fill:#ebebeb"></rect><rect x="322.53" y="401.21" width="8.69" height="0.25" style="fill:#ebebeb"></rect><rect x="396.59" y="389.21" width="19.19" height="0.25" style="fill:#ebebeb"></rect><rect x="52.46" y="390.89" width="43.19" height="0.25" style="fill:#ebebeb"></rect><rect x="104.56" y="390.89" width="6.33" height="0.25" style="fill:#ebebeb"></rect><rect x="131.47" y="395.11" width="93.68" height="0.25" style="fill:#ebebeb"></rect><path d="M237,337.8H43.91a5.71,5.71,0,0,1-5.7-5.71V60.66A5.71,5.71,0,0,1,43.91,55H237a5.71,5.71,0,0,1,5.71,5.71V332.09A5.71,5.71,0,0,1,237,337.8ZM43.91,55.2a5.46,5.46,0,0,0-5.45,5.46V332.09a5.46,5.46,0,0,0,5.45,5.46H237a5.47,5.47,0,0,0,5.46-5.46V60.66A5.47,5.47,0,0,0,237,55.2Z" style="fill:#ebebeb"></path><path d="M453.31,337.8H260.21a5.72,5.72,0,0,1-5.71-5.71V60.66A5.72,5.72,0,0,1,260.21,55h193.1A5.71,5.71,0,0,1,459,60.66V332.09A5.71,5.71,0,0,1,453.31,337.8ZM260.21,55.2a5.47,5.47,0,0,0-5.46,5.46V332.09a5.47,5.47,0,0,0,5.46,5.46h193.1a5.47,5.47,0,0,0,5.46-5.46V60.66a5.47,5.47,0,0,0-5.46-5.46Z" style="fill:#ebebeb"></path><rect x="92.06" y="84.78" width="71.25" height="241.71" style="fill:#fafafa"></rect><polygon points="152.71 84.78 148.54 84.78 123.69 326.5 127.85 326.5 152.71 84.78" style="fill:#f5f5f5"></polygon><rect x="91.61" y="85.72" width="70.45" height="2.13" style="fill:#e0e0e0"></rect><rect x="91.61" y="324.38" width="70.45" height="4.56" style="fill:#ebebeb"></rect><rect x="94.32" y="328.74" width="66.57" height="0.2" style="fill:#ebebeb"></rect><polygon points="94.32 85.72 160.88 85.72 160.88 328.74 164.87 328.74 164.87 82.73 90.33 82.73 90.33 328.74 94.32 328.74 94.32 85.72" style="fill:#ebebeb"></polygon><rect x="171.35" y="84.78" width="71.25" height="241.71" style="fill:#fafafa"></rect><polygon points="222.84 84.78 200.12 84.78 175.27 326.5 197.99 326.5 222.84 84.78" style="fill:#f5f5f5"></polygon><rect x="170.89" y="85.72" width="72.45" height="2.13" style="fill:#e0e0e0"></rect><rect x="170.89" y="324.38" width="72.45" height="4.56" style="fill:#ebebeb"></rect><rect x="173.6" y="328.74" width="66.57" height="0.2" style="fill:#ebebeb"></rect><polygon points="173.6 85.72 240.17 85.72 240.17 328.74 244.16 328.74 244.16 82.73 169.62 82.73 169.62 328.74 173.6 328.74 173.6 85.72" style="fill:#ebebeb"></polygon><rect x="250.64" y="84.78" width="69.25" height="241.71" style="fill:#fafafa"></rect><polygon points="289.88 84.78 285.71 84.78 260.86 326.5 265.02 326.5 289.88 84.78" style="fill:#f5f5f5"></polygon><rect x="250.18" y="85.72" width="70.45" height="2.13" style="fill:#e0e0e0"></rect><rect x="250.18" y="324.38" width="70.45" height="4.56" style="fill:#ebebeb"></rect><rect x="252.89" y="328.74" width="66.57" height="0.2" style="fill:#ebebeb"></rect><polygon points="252.89 85.72 319.46 85.72 319.46 328.74 323.44 328.74 323.44 82.73 248.9 82.73 248.9 328.74 252.89 328.74 252.89 85.72" style="fill:#ebebeb"></polygon><rect x="329.92" y="84.78" width="71.25" height="241.71" style="fill:#fafafa"></rect><polygon points="394.21 84.78 371.49 84.78 346.64 326.5 369.36 326.5 394.21 84.78" style="fill:#f5f5f5"></polygon><rect x="329.47" y="85.72" width="70.45" height="2.13" style="fill:#e0e0e0"></rect><rect x="329.47" y="324.38" width="70.45" height="4.56" style="fill:#ebebeb"></rect><polygon points="332.18 85.72 398.75 85.72 398.75 328.74 402.73 328.74 402.73 82.73 328.19 82.73 328.19 328.74 332.18 328.74 332.18 85.72" style="fill:#ebebeb"></polygon><rect x="332.18" y="328.74" width="66.57" height="0.2" style="fill:#ebebeb"></rect><rect x="110.34" y="300.9" width="30.93" height="53.49" style="fill:#ebebeb"></rect><polygon points="135.33 293.42 135.33 306.84 132.89 306.84 118.72 306.84 116.28 306.84 116.28 293.42 135.33 293.42" style="fill:#ebebeb"></polygon><rect x="135.33" y="302.88" width="3.96" height="3.96" transform="translate(274.62 609.72) rotate(180)" style="fill:#fafafa"></rect><rect x="127.66" y="302.88" width="3.96" height="3.96" transform="translate(259.28 609.72) rotate(180)" style="fill:#fafafa"></rect><rect x="119.99" y="302.88" width="3.96" height="3.96" transform="translate(243.94 609.72) rotate(180)" style="fill:#fafafa"></rect><rect x="112.32" y="302.88" width="3.96" height="3.96" transform="translate(228.59 609.72) rotate(180)" style="fill:#f0f0f0"></rect><rect x="135.33" y="310.07" width="3.96" height="3.96" transform="translate(274.62 624.11) rotate(180)" style="fill:#f0f0f0"></rect><rect x="127.66" y="310.07" width="3.96" height="3.96" transform="translate(259.28 624.11) rotate(180)" style="fill:#f0f0f0"></rect><rect x="119.99" y="310.07" width="3.96" height="3.96" transform="translate(243.94 624.11) rotate(180)" style="fill:#fafafa"></rect><rect x="112.32" y="310.07" width="3.96" height="3.96" transform="translate(228.59 624.11) rotate(180)" style="fill:#fafafa"></rect><rect x="135.33" y="317.27" width="3.96" height="3.96" transform="translate(274.62 638.5) rotate(180)" style="fill:#f0f0f0"></rect><rect x="127.66" y="317.27" width="3.96" height="3.96" transform="translate(259.28 638.5) rotate(180)" style="fill:#fafafa"></rect><rect x="119.99" y="317.27" width="3.96" height="3.96" transform="translate(243.94 638.5) rotate(180)" style="fill:#fafafa"></rect><rect x="127.66" y="296.66" width="3.96" height="3.96" transform="translate(259.28 597.28) rotate(180)" style="fill:#fafafa"></rect><rect x="119.99" y="296.66" width="3.96" height="3.96" transform="translate(243.94 597.28) rotate(180)" style="fill:#f0f0f0"></rect><rect x="112.32" y="317.27" width="3.96" height="3.96" transform="translate(228.59 638.5) rotate(180)" style="fill:#f0f0f0"></rect><rect x="135.33" y="324.46" width="3.96" height="3.96" transform="translate(274.62 652.89) rotate(180)" style="fill:#fafafa"></rect><rect x="127.66" y="324.46" width="3.96" height="3.96" transform="translate(259.28 652.89) rotate(180)" style="fill:#f0f0f0"></rect><rect x="119.99" y="324.46" width="3.96" height="3.96" transform="translate(243.94 652.89) rotate(180)" style="fill:#f0f0f0"></rect><rect x="112.32" y="324.46" width="3.96" height="3.96" transform="translate(228.59 652.89) rotate(180)" style="fill:#fafafa"></rect><rect x="135.33" y="331.66" width="3.96" height="3.96" transform="translate(274.62 667.28) rotate(180)" style="fill:#f0f0f0"></rect><rect x="127.66" y="331.66" width="3.96" height="3.96" transform="translate(259.28 667.28) rotate(180)" style="fill:#fafafa"></rect><rect x="119.99" y="331.66" width="3.96" height="3.96" transform="translate(243.94 667.28) rotate(180)" style="fill:#fafafa"></rect><rect x="112.32" y="331.66" width="3.96" height="3.96" transform="translate(228.59 667.28) rotate(180)" style="fill:#f0f0f0"></rect><rect x="135.33" y="338.86" width="3.96" height="3.96" transform="translate(274.62 681.67) rotate(180)" style="fill:#f0f0f0"></rect><rect x="127.66" y="338.86" width="3.96" height="3.96" transform="translate(259.28 681.67) rotate(180)" style="fill:#fafafa"></rect><rect x="119.99" y="338.86" width="3.96" height="3.96" transform="translate(243.94 681.67) rotate(180)" style="fill:#f0f0f0"></rect><rect x="112.32" y="338.86" width="3.96" height="3.96" transform="translate(228.59 681.67) rotate(180)" style="fill:#fafafa"></rect><rect x="135.33" y="346.05" width="3.96" height="3.96" transform="translate(274.62 696.06) rotate(180)" style="fill:#fafafa"></rect><rect x="127.66" y="346.05" width="3.96" height="3.96" transform="translate(259.28 696.06) rotate(180)" style="fill:#fafafa"></rect><rect x="119.99" y="346.05" width="3.96" height="3.96" transform="translate(243.94 696.06) rotate(180)" style="fill:#f0f0f0"></rect><rect x="112.32" y="346.05" width="3.96" height="3.96" transform="translate(228.59 696.06) rotate(180)" style="fill:#f0f0f0"></rect><rect x="331.45" y="320.38" width="27.71" height="34" style="fill:#f0f0f0"></rect><polygon points="333.86 324.15 340.31 324.15 342.08 324.15 343.86 324.15 343.86 327.7 342.08 327.7 340.31 327.7 333.86 327.7 333.86 324.15" style="fill:#e6e6e6"></polygon><polygon points="333.86 331.02 340.31 331.02 342.08 331.02 343.86 331.02 343.86 334.57 342.08 334.57 340.31 334.57 333.86 334.57 333.86 331.02" style="fill:#fafafa"></polygon><polygon points="333.86 337.9 340.31 337.9 342.08 337.9 343.86 337.9 343.86 341.44 342.08 341.44 340.31 341.44 333.86 341.44 333.86 337.9" style="fill:#e6e6e6"></polygon><polygon points="333.86 344.77 340.31 344.77 343.05 344.77 343.86 344.77 343.86 348.32 343.05 348.32 340.31 348.32 333.86 348.32 333.86 344.77" style="fill:#fafafa"></polygon><polygon points="346.75 324.15 353.2 324.15 354.97 324.15 356.75 324.15 356.75 327.7 354.97 327.7 353.2 327.7 346.75 327.7 346.75 324.15" style="fill:#fafafa"></polygon><polygon points="346.75 331.02 353.2 331.02 355.7 331.02 356.75 331.02 356.75 334.57 355.7 334.57 353.2 334.57 346.75 334.57 346.75 331.02" style="fill:#fafafa"></polygon><polygon points="346.75 337.9 353.2 337.9 354.97 337.9 356.75 337.9 356.75 341.44 354.97 341.44 353.2 341.44 346.75 341.44 346.75 337.9" style="fill:#e6e6e6"></polygon><polygon points="346.75 344.77 353.2 344.77 354.97 344.77 356.75 344.77 356.75 348.32 354.97 348.32 353.2 348.32 346.75 348.32 346.75 344.77" style="fill:#fafafa"></polygon><rect x="200.46" y="333.26" width="25.18" height="21.13" style="fill:#f0f0f0"></rect><rect x="220.8" y="335.89" width="3.22" height="3.22" transform="translate(444.82 675.01) rotate(180)" style="fill:#fafafa"></rect><rect x="214.56" y="335.89" width="3.22" height="3.22" transform="translate(432.33 675.01) rotate(180)" style="fill:#fafafa"></rect><rect x="208.31" y="335.89" width="3.22" height="3.22" transform="translate(419.85 675.01) rotate(180)" style="fill:#fafafa"></rect><rect x="202.07" y="335.89" width="3.22" height="3.22" transform="translate(407.36 675.01) rotate(180)" style="fill:#fafafa"></rect><rect x="220.8" y="341.75" width="3.22" height="3.22" transform="translate(444.82 686.72) rotate(180)" style="fill:#fafafa"></rect><rect x="214.56" y="341.75" width="3.22" height="3.22" transform="translate(432.33 686.72) rotate(180)" style="fill:#fafafa"></rect><rect x="208.31" y="341.75" width="3.22" height="3.22" transform="translate(419.85 686.72) rotate(180)" style="fill:#fafafa"></rect><rect x="202.07" y="341.75" width="3.22" height="3.22" transform="translate(407.36 686.72) rotate(180)" style="fill:#e6e6e6"></rect><rect x="220.8" y="347.6" width="3.22" height="3.22" transform="translate(444.82 698.43) rotate(180)" style="fill:#e6e6e6"></rect><rect x="214.56" y="347.6" width="3.22" height="3.22" transform="translate(432.33 698.43) rotate(180)" style="fill:#e6e6e6"></rect><rect x="208.31" y="347.6" width="3.22" height="3.22" transform="translate(419.85 698.43) rotate(180)" style="fill:#fafafa"></rect><rect x="202.07" y="347.6" width="3.22" height="3.22" transform="translate(407.36 698.43) rotate(180)" style="fill:#e6e6e6"></rect><rect x="171.87" y="317.63" width="25.18" height="36.75" style="fill:#f0f0f0"></rect><rect x="185.97" y="319.25" width="9.47" height="9.08" style="fill:#fafafa"></rect><rect x="173.48" y="319.25" width="9.47" height="9.08" style="fill:#fafafa"></rect><rect x="185.97" y="330.96" width="9.47" height="9.08" style="fill:#fafafa"></rect><rect x="173.48" y="330.96" width="9.47" height="9.08" style="fill:#fafafa"></rect><rect x="185.97" y="342.67" width="9.47" height="9.08" style="fill:#fafafa"></rect><rect x="173.48" y="342.67" width="9.47" height="9.08" style="fill:#fafafa"></rect><path d="M81.91,357.51s-5.07-11.05.72-21.94,7.46-13.46,3.77-15.69S81,328.59,81,328.59a24.58,24.58,0,0,1-.54-15.41c2.57-7.88,4.18-20.71.67-22.09s-.67,16-3.71,21.94a51.16,51.16,0,0,1-3-12.93c-.42-6.33.23-16.43-2.54-19s-4.54-.79-1.82,13.17a146.18,146.18,0,0,1,2.7,25.32s-6-18.32-10-18.85-4,5.4-.57,10.54,10.11,14.37,11.2,19.11c0,0-6.6-13.79-12.53-9.56S66,333.35,71,336.36s8.38,21.88,8.38,21.88Z" style="fill:#e0e0e0"></path><path d="M77.91,362s4.93-11.12-1-21.93-7.62-13.34-4-15.63,5.49,8.63,5.49,8.63,3-7.57.35-15.41-4.42-20.65-.93-22.08.86,16,4,21.88a51,51,0,0,0,2.82-13c.35-6.34-.43-16.43,2.31-19.07s4.53-.86,2,13.14A146.16,146.16,0,0,0,86.55,324s5.79-18.41,9.81-19,4.09,5.34.7,10.53-9.93,14.52-11,19.28c0,0,6.43-13.89,12.42-9.75s-5,12.63-9.93,15.71-8.11,22-8.11,22Z" style="fill:#ebebeb"></path><polygon points="100.65 354.11 59.92 354.11 63.22 383.26 97.36 383.26 100.65 354.11" style="fill:#ebebeb"></polygon><path d="M406,352c.15-1,3.53-24.29-3.24-32.33a7.28,7.28,0,0,0-5.62-2.77c-13.65-.32-15.52,10.65-15.54,10.76l1.61.25c.06-.39,1.68-9.68,13.9-9.38a5.71,5.71,0,0,1,4.41,2.18c6.29,7.49,2.91,30.82,2.87,31.05Z" style="fill:#ebebeb"></path><path d="M406.82,351l1.63-.05c0-.21-.54-21.47,9.93-25.86,10.27-4.3,14.89,4.54,15.08,4.92l1.45-.74c-.05-.1-5.47-10.59-17.16-5.69C406.25,328.38,406.79,350.05,406.82,351Z" style="fill:#ebebeb"></path><path d="M406.77,352.64c0-.34.1-34,6.66-43.79,6.29-9.44,16.44-5,16.87-4.8l.68-1.49c-.12-.05-11.84-5.22-18.91,5.38-6.83,10.24-6.93,43.3-6.93,44.7Z" style="fill:#ebebeb"></path><path d="M395.18,317.74s6,2.19,4.19,7.38-20.63,13.74-20.63,13.74-7.9-7.24-.64-19S395,314,395.18,317.74Z" style="fill:#e0e0e0"></path><path d="M413.72,307.08s-4.23-.46-3.89-3,16.46-9.21,26,1.52c0,0-6.09,10.46-14.89,10.6S413.72,307.08,413.72,307.08Z" style="fill:#e0e0e0"></path><path d="M418.07,324.3s-2.92-2.35.23-3.51,18.63-.82,18.79,14.51c0,0-18,3-20.25-2.85S418.07,324.3,418.07,324.3Z" style="fill:#e0e0e0"></path><polygon points="391.98 383.26 419.94 383.26 422.96 352.64 388.96 352.64 391.98 383.26" style="fill:#ebebeb"></polygon><rect x="387.47" y="349.26" width="36.99" height="6.76" transform="translate(811.92 705.28) rotate(180)" style="fill:#e0e0e0"></rect></g><g id="freepik--Shadow--inject-4"><ellipse id="freepik--path--inject-4" cx="250" cy="416.24" rx="193.89" ry="11.32" style="fill:#f5f5f5"></ellipse></g><g id="freepik--Images--inject-4"><rect x="124.38" y="111.22" width="75.62" height="57.36" style="fill:#F98888"></rect><rect x="124.38" y="111.22" width="75.62" height="57.36" style="fill:#fff;opacity:0.7000000000000001"></rect><rect x="135.66" y="104.26" width="53.04" height="71.3" transform="translate(302.09 -22.28) rotate(90)" style="fill:#F98888"></rect><rect x="135.66" y="104.26" width="53.04" height="71.3" transform="translate(302.09 -22.28) rotate(90)" style="fill:#fff;opacity:0.6000000000000001"></rect><path d="M153.27,129.66a6.34,6.34,0,1,1-6.34-6.33A6.34,6.34,0,0,1,153.27,129.66Z" style="fill:#fff"></path><polygon points="127.96 142.52 134.83 142.52 134.83 154.62 139.24 154.62 139.24 159.48 144.55 159.48 144.55 146.48 151.9 146.48 151.9 141.84 156.19 141.84 156.19 151.68 162.97 151.68 162.97 160.72 167.72 160.72 167.72 156.88 177.16 156.88 177.16 147.84 179.73 150.41 179.73 156.65 184.22 156.65 184.22 160.38 188.29 160.38 188.29 148.63 192.47 148.63 192.47 142.86 195.3 142.86 195.3 137.78 196.41 137.78 196.41 165 127.96 165 127.96 142.52" style="opacity:0.1;isolation:isolate"></polygon><rect x="233.73" y="77.74" width="98.45" height="74.68" style="fill:#F98888"></rect><rect x="233.73" y="77.74" width="98.45" height="74.68" style="fill:#fff;opacity:0.8"></rect><rect x="248.42" y="68.67" width="69.06" height="92.83" transform="translate(398.03 -167.87) rotate(90)" style="fill:#F98888"></rect><rect x="248.42" y="68.67" width="69.06" height="92.83" transform="translate(398.03 -167.87) rotate(90)" style="fill:#fff;opacity:0.6000000000000001"></rect><polygon points="327.68 124.27 327.68 147.92 238.23 147.92 238.23 135.36 257.41 116.18 276.38 135.15 307.47 104.06 327.68 124.27" style="opacity:0.1;isolation:isolate"></polygon><circle cx="265.99" cy="96.58" r="8.24" transform="translate(-16.71 109.14) rotate(-22.5)" style="fill:#fff"></circle></g><g id="freepik--Device--inject-4"><path d="M242.17,421.22v3.85a.86.86,0,0,0,.87.86H351.75a5.66,5.66,0,0,0,5.26-7.78l-34.45-85.32-55.67.38,1.9,11.07,12.28,71.65a3.79,3.79,0,0,1-3.73,4.43H243A.86.86,0,0,0,242.17,421.22Z" style="fill:#F98888"></path><path d="M242.17,421.22v3.85a.86.86,0,0,0,.87.86H351.75a5.66,5.66,0,0,0,5.26-7.78l-21.36-52.89-13.09-32.43-55.67.38,1.9,11.07,5.34,31.16,6.94,40.49a3.79,3.79,0,0,1-3.73,4.43H243A.86.86,0,0,0,242.17,421.22Z" style="fill:#fff;opacity:0.6000000000000001"></path><path d="M277.34,420.36h70.73a2.48,2.48,0,0,0,2.29-3.44l-30.2-72.64H268.79l12.28,71.65A3.79,3.79,0,0,1,277.34,420.36Z" style="opacity:0.2;isolation:isolate"></path><polygon points="266.89 333.21 268.79 344.28 274.13 375.44 335.65 365.26 322.56 332.83 266.89 333.21" style="opacity:0.1;isolation:isolate"></polygon><path d="M158.63,174.16H416.37a6.59,6.59,0,0,1,6.59,6.59V355.24a6.59,6.59,0,0,1-6.59,6.59H158.63a6.59,6.59,0,0,1-6.59-6.59V180.75A6.59,6.59,0,0,1,158.63,174.16Z" style="fill:#F98888"></path><path d="M158.63,174.16H416.37a6.59,6.59,0,0,1,6.59,6.59V355.24a6.59,6.59,0,0,1-6.59,6.59H158.63a6.59,6.59,0,0,1-6.59-6.59V180.75A6.59,6.59,0,0,1,158.63,174.16Z" style="fill:#fff;opacity:0.7000000000000001"></path><path d="M410.91,361.83h5.46a6.59,6.59,0,0,0,6.59-6.59V180.76a6.59,6.59,0,0,0-6.59-6.6h-5.46a6.59,6.59,0,0,1,6.58,6.6V355.24A6.59,6.59,0,0,1,410.91,361.83Z" style="opacity:0.2;isolation:isolate"></path><rect x="157.98" y="180.62" width="253.57" height="168.25" style="fill:#263238"></rect><rect x="157.98" y="180.62" width="253.57" height="168.25" style="fill:#fff;opacity:0.1"></rect><rect x="157.88" y="325.88" width="253.66" height="22.99" style="fill:#F98888"></rect><path d="M377.61,347.21H186.92a9.76,9.76,0,0,1-9.76-9.75h0a9.76,9.76,0,0,1,9.76-9.76H377.61a9.76,9.76,0,0,1,9.76,9.76h0A9.76,9.76,0,0,1,377.61,347.21Z" style="fill:#fff;opacity:0.2;isolation:isolate"></path><rect x="197.04" y="192.8" width="172.31" height="130.71" style="fill:#F98888"></rect><rect x="197.04" y="192.8" width="172.31" height="130.71" style="fill:#fff;opacity:0.8"></rect><rect x="222.77" y="176.92" width="120.87" height="162.47" transform="translate(541.35 -25.05) rotate(90)" style="fill:#F98888"></rect><rect x="222.77" y="176.92" width="120.87" height="162.47" transform="translate(541.35 -25.05) rotate(90)" style="fill:#fff;opacity:0.4"></rect><polygon points="206.84 276.91 236.08 247.67 282.35 293.94 328.05 248.25 360.24 280.44 360.24 314.34 206.84 314.34 206.84 276.91" style="opacity:0.30000000000000004;isolation:isolate"></polygon><g style="opacity:0.8"><path d="M280.84,234a46.59,46.59,0,0,0-38.35,20.05l2.82,2.82,5.67,5.67a35,35,0,0,1,60.83,1.92l2.88-2.88,5.72-5.72A46.69,46.69,0,0,0,280.84,234Z" style="fill:#fff;opacity:0.2;isolation:isolate"></path><path d="M280.84,237.94a42.8,42.8,0,0,0-35.53,19l5.67,5.67a35,35,0,0,1,60.83,1.92l2.88-2.88,2.87-2.87A42.87,42.87,0,0,0,280.84,237.94Z" style="fill:#fff;opacity:0.30000000000000004;isolation:isolate"></path><path d="M280.84,241.86a38.8,38.8,0,0,0-32.69,17.87l2.83,2.84a35,35,0,0,1,60.83,1.92l2.88-2.88A38.93,38.93,0,0,0,280.84,241.86Z" style="fill:#fff;opacity:0.4;isolation:isolate"></path></g><rect x="157.98" y="180.62" width="253.57" height="10.53" style="fill:#F98888"></rect><path d="M408.71,186.08a2.77,2.77,0,1,1-2.76-2.77A2.77,2.77,0,0,1,408.71,186.08Z" style="fill:#fff;opacity:0.2;isolation:isolate"></path><path d="M399.75,186.08a2.77,2.77,0,1,1-2.77-2.77A2.77,2.77,0,0,1,399.75,186.08Z" style="fill:#fff;opacity:0.2;isolation:isolate"></path><path d="M390.78,186.08a2.77,2.77,0,1,1-2.77-2.77A2.77,2.77,0,0,1,390.78,186.08Z" style="fill:#fff;opacity:0.2;isolation:isolate"></path><path d="M380.47,245h0a2.18,2.18,0,0,0,.43,2.49l12.67,12.67L380.9,272.78a2.18,2.18,0,0,0-.43,2.49h0a2.19,2.19,0,0,0,3.52.6l14.51-14.51a1.77,1.77,0,0,0,0-2.5L384,244.35A2.19,2.19,0,0,0,380.47,245Z" style="fill:#fff;opacity:0.2;isolation:isolate"></path><path d="M186.8,275.27h0a2.18,2.18,0,0,0-.43-2.49l-12.66-12.67,12.66-12.67a2.18,2.18,0,0,0,.43-2.49h0a2.19,2.19,0,0,0-3.52-.6l-14.5,14.51a1.77,1.77,0,0,0,0,2.5l14.5,14.51A2.19,2.19,0,0,0,186.8,275.27Z" style="fill:#fff;opacity:0.2;isolation:isolate"></path><rect x="270.91" y="329.36" width="23.47" height="15.55" rx="1.32" style="fill:#fff;opacity:0.6000000000000001"></rect><rect x="276.87" y="327.41" width="11.55" height="19.47" transform="translate(619.79 54.49) rotate(90)" style="opacity:0.2;isolation:isolate"></rect><g style="opacity:0.6000000000000001"><path d="M308.28,332.51a.79.79,0,0,0-1.24.66V341a.79.79,0,0,0,1.24.66l5.85-3.91a.8.8,0,0,0,0-1.33Z" style="fill:#fff"></path><path d="M316.81,332.52a.79.79,0,0,0-.79.79v7.81a.79.79,0,0,0,.79.79.79.79,0,0,0,.8-.79v-7.81A.79.79,0,0,0,316.81,332.52Z" style="fill:#fff"></path></g><path d="M333.75,332.21v-.68a.28.28,0,0,0-.43-.23l-2,1.36a.28.28,0,0,0,0,.46l2,1.36a.28.28,0,0,0,.43-.23v-.54a4,4,0,1,1-4.73,3.88.74.74,0,1,0-1.48,0,5.44,5.44,0,1,0,6.21-5.38Z" style="fill:#fff;opacity:0.6000000000000001"></path><path d="M350.75,332.21v-.68a.28.28,0,0,1,.43-.23l2,1.36a.28.28,0,0,1,0,.46l-2,1.36a.28.28,0,0,1-.43-.23v-.54a4,4,0,1,0,4.73,3.88.74.74,0,0,1,.74-.74.75.75,0,0,1,.75.74,5.44,5.44,0,1,1-6.22-5.38Z" style="fill:#fff;opacity:0.6000000000000001"></path><path d="M379.1,340.58l-3.43-3.44,3.43-3.44a.87.87,0,0,0,0-1.23.85.85,0,0,0-1.23,0l-3.44,3.43L371,332.47a.87.87,0,0,0-1.24,1.23l3.44,3.44-3.44,3.44a.88.88,0,0,0,1.24,1.24l3.44-3.44,3.44,3.44a.87.87,0,0,0,1.23,0A.88.88,0,0,0,379.1,340.58Z" style="fill:#fff;opacity:0.6000000000000001"></path><g style="opacity:0.6000000000000001"><path d="M256.37,341.78a.8.8,0,0,0,1.24-.67v-7.83a.8.8,0,0,0-1.24-.66l-5.84,3.92a.78.78,0,0,0,0,1.32Z" style="fill:#fff"></path><path d="M247.84,341.77a.8.8,0,0,0,.8-.8v-7.8a.8.8,0,1,0-1.6,0V341A.8.8,0,0,0,247.84,341.77Z" style="fill:#fff"></path></g><g style="opacity:0.6000000000000001"><path d="M230.39,335.42a.76.76,0,0,1-.76-.76v-2.15h-2.22a.76.76,0,1,1,0-1.52h3a.76.76,0,0,1,.76.76v2.91A.76.76,0,0,1,230.39,335.42Z" style="fill:#fff"></path><path d="M230.35,343.29h-2.9a.76.76,0,1,1,0-1.52h2.14v-2.22a.76.76,0,1,1,1.52,0v3A.76.76,0,0,1,230.35,343.29Z" style="fill:#fff"></path><path d="M219.08,343.29h-3a.76.76,0,0,1-.77-.76v-2.91a.77.77,0,0,1,1.53,0v2.15h2.22a.76.76,0,0,1,0,1.52Z" style="fill:#fff"></path><path d="M216.13,335.5a.76.76,0,0,1-.76-.76v-3a.76.76,0,0,1,.76-.76H219a.76.76,0,1,1,0,1.52H216.9v2.23A.77.77,0,0,1,216.13,335.5Z" style="fill:#fff"></path></g><g style="opacity:0.6000000000000001"><path d="M201.43,332.41a5.2,5.2,0,0,0-7.92,6.69l-2.81,2.8a.88.88,0,0,0,.62,1.5.87.87,0,0,0,.62-.26l2.8-2.81a5.2,5.2,0,0,0,6.69-7.92Zm-1.24,6.13a3.46,3.46,0,1,1,0-4.89A3.46,3.46,0,0,1,200.19,338.54Z" style="fill:#fff"></path><path d="M199.26,335.6h-1v-1a.51.51,0,0,0-.5-.5.5.5,0,0,0-.5.5v1h-1a.5.5,0,0,0-.5.5.51.51,0,0,0,.5.5h1v1a.5.5,0,0,0,.5.5.51.51,0,0,0,.5-.5v-1h1a.5.5,0,0,0,.5-.5A.5.5,0,0,0,199.26,335.6Z" style="fill:#fff"></path></g><path d="M184.41,180.62c35.06,35.12,125.11,113.29,227.14,107.51V180.62Z" style="fill:#fff;opacity:0.1"></path><path d="M158,245.17v103.7H310.64c-5.85-20.95-17.56-49.63-40.26-70.12C229.54,241.87,182.15,242,158,245.17Z" style="fill:#fff;opacity:0.1"></path></g></svg>