<?xml version="1.0" encoding="iso-8859-1"?>
<!-- Generator: Adobe Illustrator 19.0.0, SVG Export Plug-In . SVG Version: 6.00 Build 0)  -->
<svg version="1.1" id="Layer_1" xmlns="http://www.w3.org/2000/svg" xmlns:xlink="http://www.w3.org/1999/xlink" x="0px" y="0px"
	 viewBox="0 0 512 512" style="enable-background:new 0 0 512 512;" xml:space="preserve">
<g>
	<g>
		<polygon points="308.256,262.651 308.256,246.921 290.943,246.921 290.943,262.651 275.424,262.651 297.277,219.474 
			279.33,219.474 256.106,264.34 256.106,276.797 290.943,276.797 290.943,292.948 308.256,292.948 308.256,276.797 
			318.285,276.797 318.285,262.651 		"/>
	</g>
</g>
<g>
	<g>
		<path d="M218.735,278.169l14.991-15.835c7.917-8.234,13.829-16.469,13.829-24.492c0-11.612-10.557-19.108-25.125-19.108
			c-10.451,0-20.586,4.012-29.77,10.979l7.073,13.407c6.651-5.806,14.04-9.29,19.952-9.29c5.278,0,8.34,2.428,8.34,6.651
			c0,3.378-2.956,8.34-7.073,12.563l-26.181,27.87v12.035h55v-14.779H218.735z"/>
	</g>
</g>
<g>
	<g>
		<path d="M437.025,74.976C388.676,26.627,324.386,0,256,0S123.324,26.627,74.975,74.976C26.627,123.324,0,187.614,0,256
			s26.627,132.676,74.975,181.024C123.324,485.373,187.614,512,256,512s132.676-26.627,181.025-74.976
			C485.373,388.676,512,324.386,512,256S485.373,123.324,437.025,74.976z M425.828,425.828
			C380.469,471.185,320.156,496.165,256,496.165s-124.469-24.98-169.828-70.337C40.814,380.47,15.835,320.157,15.835,256
			S40.814,131.53,86.172,86.172C131.531,40.815,191.844,15.835,256,15.835s124.469,24.98,169.828,70.337
			c45.358,45.358,70.337,105.67,70.337,169.828S471.186,380.47,425.828,425.828z"/>
	</g>
</g>
<g>
	<g>
		<path d="M415.17,113.257c-40.604-45.14-98.619-71.03-159.17-71.03C138.125,42.227,42.227,138.125,42.227,256
			S138.125,469.773,256,469.773S469.773,373.875,469.773,256C469.773,203.137,450.383,152.445,415.17,113.257z M408.765,381.732
			l-31.042-31.042l-11.198,11.196l31.665,31.665c-34.298,35.441-81.678,58.134-134.273,60.214v-44.694h-15.835v44.694
			c-52.595-2.08-99.975-24.773-134.272-60.214l31.665-31.665l-11.198-11.196l-31.042,31.042
			c-26.642-32.312-43.237-73.19-45.002-117.815h44.694v-15.835H58.234c1.765-44.625,18.36-85.503,45.001-117.815l31.042,31.042
			l11.197-11.196l-31.665-31.665c34.298-35.441,81.678-58.134,134.273-60.214v44.694h15.835v-44.69
			c50.695,2.043,98.912,23.622,134.345,60.137l-31.738,31.738l11.197,11.196l31.123-31.123
			c27.464,33.295,43.21,74.614,44.926,117.896h-44.699v15.835h44.694C452.001,308.543,435.406,349.421,408.765,381.732z"/>
	</g>
</g>
<g>
	<g>
		<path d="M334.276,153.072h22.013v-15.835h-55.423v55.423h15.835v-32.528c32.686,20.737,52.784,56.974,52.784,95.869
			c0,62.576-50.91,113.485-113.485,113.485S142.515,318.576,142.515,256S193.425,142.515,256,142.515V126.68
			c-71.307,0-129.32,58.012-129.32,129.32S184.693,385.32,256,385.32S385.32,327.307,385.32,256
			C385.32,215.404,366.119,177.34,334.276,153.072z"/>
	</g>
</g>
<g>
</g>
<g>
</g>
<g>
</g>
<g>
</g>
<g>
</g>
<g>
</g>
<g>
</g>
<g>
</g>
<g>
</g>
<g>
</g>
<g>
</g>
<g>
</g>
<g>
</g>
<g>
</g>
<g>
</g>
</svg>
