<?xml version="1.0" encoding="iso-8859-1"?>
<!-- Generator: Adobe Illustrator 19.0.0, SVG Export Plug-In . SVG Version: 6.00 Build 0)  -->
<svg version="1.1" id="Layer_1" xmlns="http://www.w3.org/2000/svg" xmlns:xlink="http://www.w3.org/1999/xlink" x="0px" y="0px"
	 viewBox="0 0 503.607 503.607" style="enable-background:new 0 0 503.607 503.607;" xml:space="preserve">
<g>
	<g>
		<g>
			<path d="M176.357,209.836c-16.999,0-32.127,8.591-42.084,21.753c-9.955-13.163-25.078-21.753-42.077-21.753
				c-49.511,0-67.141,61.416-31.423,98.022c13.603,13.956,65.013,65.252,68.226,67.916c3.313,2.746,8.167,2.542,11.237-0.473
				c1.609-1.58,5.979-5.884,10.572-10.416c6.815-6.725,13.784-13.617,20.448-20.229c18.6-18.456,31.724-31.646,36.655-36.936
				C243.39,269.673,225.981,209.836,176.357,209.836z M195.634,296.272c-4.714,5.057-17.809,18.219-36.201,36.467
				c-6.651,6.6-13.61,13.482-20.414,20.196c-1.649,1.627-3.269,3.224-4.741,4.676c-14.068-13.809-50.851-50.563-61.486-61.474
				c-26.146-26.796-13.883-69.515,19.405-69.515c15.032,0,28.348,10.354,34.302,24.987c2.837,6.973,12.711,6.973,15.549,0
				c5.953-14.63,19.276-24.987,34.31-24.987C209.859,226.623,221.921,268.081,195.634,296.272z"/>
			<path d="M468.211,67.147H35.395C15.844,67.147,0,82.992,0,102.543v56.933v241.588c0,19.551,15.844,35.395,35.395,35.395h432.816
				c19.551,0,35.395-15.844,35.395-35.395V159.475v-56.933C503.607,82.992,487.762,67.147,468.211,67.147z M16.787,102.543
				c0-10.28,8.329-18.608,18.608-18.608h432.816c10.28,0,18.608,8.329,18.608,18.608v48.539H16.787V102.543z M468.211,419.672
				H35.395c-10.28,0-18.608-8.329-18.608-18.608V167.869H486.82v233.195C486.82,411.343,478.491,419.672,468.211,419.672z"/>
			<path d="M360.918,251.803c0-18.544-15.03-33.574-33.574-33.574c-18.543,0-33.574,15.03-33.574,33.574s15.03,33.574,33.574,33.574
				C345.888,285.377,360.918,270.347,360.918,251.803z M310.557,251.803c0-9.272,7.515-16.787,16.787-16.787
				c9.272,0,16.787,7.515,16.787,16.787c0,9.272-7.514,16.787-16.787,16.787C318.072,268.59,310.557,261.076,310.557,251.803z"/>
			<path d="M411.279,302.164c-18.543,0-33.574,15.03-33.574,33.574c0,18.544,15.03,33.574,33.574,33.574
				c18.544,0,33.574-15.03,33.574-33.574C444.852,317.194,429.822,302.164,411.279,302.164z M411.279,352.525
				c-9.272,0-16.787-7.515-16.787-16.787c0-9.272,7.515-16.787,16.787-16.787c9.272,0,16.787,7.515,16.787,16.787
				C428.066,345.01,420.551,352.525,411.279,352.525z"/>
			<path d="M424.708,219.908c-3.708-2.781-8.969-2.03-11.751,1.679L312.236,355.882c-2.781,3.708-2.03,8.969,1.679,11.751
				c3.708,2.781,8.969,2.03,11.751-1.679l100.721-134.295C429.168,227.951,428.417,222.689,424.708,219.908z"/>
		</g>
	</g>
</g>
<g>
</g>
<g>
</g>
<g>
</g>
<g>
</g>
<g>
</g>
<g>
</g>
<g>
</g>
<g>
</g>
<g>
</g>
<g>
</g>
<g>
</g>
<g>
</g>
<g>
</g>
<g>
</g>
<g>
</g>
</svg>
